<?xml version="1.0" standalone="no"?>
<!DOCTYPE svg PUBLIC "-//W3C//DTD SVG 20010904//EN"
 "http://www.w3.org/TR/2001/REC-SVG-20010904/DTD/svg10.dtd">
<svg version="1.0" xmlns="http://www.w3.org/2000/svg"
 width="600.000000pt" height="600.000000pt" viewBox="0 0 600.000000 600.000000"
 preserveAspectRatio="xMidYMid meet">
<metadata>
Created by potrace 1.11, written by Peter Selinger 2001-2013
</metadata>
<g transform="translate(0.000000,600.000000) scale(0.100000,-0.100000)"
fill="#000000" stroke="none">
<path d="M4138 5436 c-1 -2 -42 -6 -89 -10 -212 -15 -441 -99 -617 -228 -166
-121 -329 -322 -401 -494 -18 -43 -36 -86 -41 -95 -9 -18 -46 -167 -55 -224
-4 -22 -8 -89 -10 -150 -2 -101 2 -160 19 -272 l7 -42 -68 4 c-501 32 -1031
193 -1488 453 -78 45 -333 212 -358 235 -6 7 -39 32 -71 57 -135 103 -338 294
-465 440 -31 35 -63 73 -72 82 -15 17 -18 12 -57 -69 -82 -178 -113 -313 -117
-513 -3 -132 0 -168 29 -314 11 -61 59 -189 101 -271 80 -156 188 -289 322
-396 39 -31 70 -59 67 -62 -5 -4 -34 -2 -104 7 -122 17 -255 57 -363 110 l-69
34 6 -91 c3 -51 7 -101 9 -112 3 -11 8 -40 12 -65 13 -79 65 -222 116 -320
149 -285 399 -497 705 -599 49 -16 98 -31 109 -33 25 -6 -36 -24 -115 -35 -73
-10 -259 -10 -343 0 -37 5 -67 7 -67 5 0 -2 15 -40 33 -83 66 -159 161 -299
280 -414 97 -93 120 -112 213 -168 146 -90 306 -151 444 -169 19 -3 44 -6 55
-9 11 -2 42 -4 69 -4 61 -1 56 -8 -62 -89 -186 -127 -360 -217 -567 -293 -77
-28 -282 -87 -335 -95 -14 -3 -47 -9 -75 -14 -52 -10 -83 -14 -225 -29 -83 -9
-354 -7 -455 3 l-50 5 60 -38 c223 -142 566 -295 840 -374 113 -33 307 -79
385 -91 237 -38 280 -41 615 -41 274 0 398 5 485 19 14 3 45 7 70 10 25 3 55
8 66 10 12 2 37 7 55 10 196 31 544 134 712 210 373 169 554 281 872 539 76
62 303 293 394 402 234 281 454 651 581 980 24 61 47 119 51 130 5 11 20 56
34 100 14 44 30 95 36 112 26 81 85 351 104 483 13 83 14 95 21 190 4 52 8
102 10 110 1 8 3 90 3 181 l1 166 83 63 c90 70 323 298 377 370 19 25 37 47
41 50 18 15 107 150 98 150 -5 0 -23 -7 -40 -16 -67 -34 -409 -142 -409 -128
0 3 -8 1 -17 -5 -10 -5 -40 -12 -68 -15 -27 -4 -59 -9 -70 -11 -37 -9 -75 -14
-75 -11 0 2 19 16 42 31 23 15 47 32 52 37 131 107 207 188 282 302 49 73 129
233 140 278 6 27 4 27 -127 -41 -74 -38 -156 -77 -184 -87 -27 -9 -54 -21 -60
-24 -15 -11 -188 -65 -282 -89 -99 -26 -128 -26 -145 -3 -20 27 -126 115 -195
161 -100 66 -270 142 -375 165 -16 4 -29 7 -30 7 -36 10 -111 20 -178 25 -47
3 -90 7 -97 9 -6 2 -13 2 -15 1z"/>
</g>
</svg>
